<svg xmlns="http://www.w3.org/2000/svg" viewBox="0 0 32 32" fill="none">
  <defs>
    <linearGradient id="mp-bg" x1="0" y1="0" x2="1" y2="1">
      <stop offset="0%" stop-color="#6da58b"/>
      <stop offset="100%" stop-color="#4d7c66"/>
    </linearGradient>
    <radialGradient id="mp-plate" cx="0.4" cy="0.32" r="0.75">
      <stop offset="0%" stop-color="#ffffff"/>
      <stop offset="100%" stop-color="#ebe6da"/>
    </radialGradient>
  </defs>

  <rect width="32" height="32" rx="7" fill="url(#mp-bg)"/>

  <g fill="#fafafa">
    <rect x="5.6" y="5" width="1.1" height="6" rx="0.5"/>
    <rect x="7.3" y="5" width="1.1" height="6" rx="0.5"/>
    <rect x="9.0" y="5" width="1.1" height="6" rx="0.5"/>
    <rect x="5.4" y="10.6" width="5.2" height="1.6" rx="0.7"/>
    <rect x="7.3" y="11.6" width="1.7" height="12.6" rx="0.8"/>
  </g>

  <g fill="#fafafa">
    <path d="M20.8 5 L22.8 5 L22.6 13.6 L21.0 13.6 Z"/>
    <rect x="21.2" y="13.0" width="1.3" height="11.2" rx="0.6"/>
  </g>

  <ellipse cx="16" cy="18.8" rx="10" ry="5.6" fill="url(#mp-plate)"/>
  <ellipse cx="16" cy="18.8" rx="9.4" ry="5.0" fill="none" stroke="#5a9178" stroke-width="0.5" opacity="0.35"/>
  <ellipse cx="16" cy="18.5" rx="6.0" ry="3.0" fill="none" stroke="#5a9178" stroke-width="0.4" opacity="0.30"/>

  <circle cx="13.4" cy="18.2" r="1.6" fill="#3ecf8e"/>
  <circle cx="16.2" cy="18.0" r="1.3" fill="#e07a5f"/>
  <circle cx="18.3" cy="19.0" r="1.0" fill="#f0d56a"/>
</svg>
